# xmcd CD database file
#
# Track frame offsets:
#	150
#	19020
#	40145
#	68767
#	89132
#	110405
#	136400
#	161742
#	180457
#	199627
#
# Disc length: 3015 seconds
#
# Revision: 1
# Processed by: cddbd v1.5.1PL0 Copyright (c) Steve Scherf et al.
# Submitted via: CDex 1.51
#
DISCID=840bc50a
DTITLE=Dario Mollo/Tony Martin - The Cage
DYEAR=1998
DGENRE=Heavy Metal
TTITLE0=Cry Myself To Death
TTITLE1=Time To Kill
TTITLE2=The Cage - If You Believe
TTITLE3=Relax
TTITLE4=Smoke And Mirrors
TTITLE5=Infinity
TTITLE6=Dead And Dancing
TTITLE7=This Kind Of Love
TTITLE8=Stormbringer
TTITLE9=Soul Searching
EXTD=YEAR: 1998
EXTT0=
EXTT1=
EXTT2=
EXTT3=
EXTT4=
EXTT5=
EXTT6=
EXTT7=
EXTT8=
EXTT9=
PLAYORDER=
